<?xml version="1.0" encoding="UTF-8"?>
<svg id="Layer_1" data-name="Layer 1" xmlns="http://www.w3.org/2000/svg" viewBox="0 0 441.04 318.26">
  <path d="M441.04,33.28c-10.3,7.81-20.42,15.43-30.94,22.44-23.42,15.59-46.34,31.96-70.87,45.85-15.65,8.86-32.65,14.22-49.75,19.23-13.08,3.84-26.35,7.05-39.55,10.48-1.76.46-3.64.91-5.41.76-7.98-.66-13.75,3.55-19.64,8.61,5.91,1.98,12.17,1.94,17.42,5.44,10.19,6.81,15.39,16.44,14.56,28.36-.92,13.22-7.93,23.13-20.1,28.89-5.31,2.52-10.97,3.77-16.95,3.65-8.16-.16-16.33-.15-24.5.02-3.98.08-5.61-1.4-4.81-5.36.33-1.63.68-3.26.91-4.91.4-2.87,1.83-3.82,4.8-3.52,6.03.6,11.91-.18,17.63-2.47,4.57-1.84,7.42-5.04,8.77-9.57,2.51-8.4,1.84-16.52-3.23-23.88-4.08-5.91-9.44-6.66-15.45-2.75-6.03,3.92-12.49,7.04-19.37,9.14-2.37.73-3.49,1.69-3.72,4.38-.63,7.33-.38,14.65-.53,21.98-.05,2.28.89,3.58,3.03,4.56,3.62,1.66,5.41,6.92,4.04,10.5-.82,2.14-2.59,1.8-4.19,1.81-11.82.08-23.65-.28-35.46.87-2.1.2-5.2,1.13-5.65-2.31-.42-3.3-.44-7.42,3.21-8.68,5.17-1.78,5.6-5.17,5.5-9.7-.22-10.26-.07-20.52-.07-31.05-13.57,6.41-14.21,7.27-10.99,14.59,2.53-.07,3.03-3.54,5.99-3.43,2.57,3.64-2.8,5-2.48,8.53.11.68,1.26.62,2.14,1.02,4.85,2.16,5.6,8.51,1.29,11.68-4.16,3.05-8.41,5.98-12.69,8.87-2.65,1.79-5.33,3.12-8.85,2.33-2.46-.55-4.82.32-4.4,3.71.8,6.6-1.2,12.5-4.42,18.08-1.26,2.18-.83,3.43,1.23,4.93,17.92,13.08,37.48,22.2,59.6,25.33,18.14,2.57,35.81.59,53.15-5.27,26.78-9.06,46.68-26.35,60.92-50.48,12.37-20.95,17.57-43.67,16.65-67.9-.13-3.33-.31-6.66,3.79-8.33,5.35-2.18,8.41-.92,9.36,4.83.67,4.09.87,8.29.85,12.45-.11,33.73-12.75,62.45-34.77,87.55-20.24,23.07-45.95,35.93-75.78,40.89-23.38,3.88-46.06.99-67.85-8.71-13.18-5.87-25.62-12.76-35.96-22.99-1.91-1.89-3.92-2.27-6.3-.85-25.38,15.12-49.22,9.04-72.31-5.49-8.46-5.32-16.61-11.12-23.82-18.13-.48-.46-1.05-.87-1.4-1.42-1.44-2.26-5.01-4.17-3.13-7.17,1.8-2.88,4.9-.64,7.3.06,15.52,4.55,26.77.51,35.79-13.02,4.79-7.19,9.24-14.59,16.97-19.32,10.68-6.53,21.89-6.03,33.3-3.08,3.44.89,5.64.36,8.4-2.07,5.38-4.74,11.39-8.79,19.31-6.97,1.27.29,2.18-.54,3.2-1.11,7.54-4.22,14.92-8.83,23.61-10.4,2.01-.36,2.27-1.75,2.27-3.3.05-13,.11-26,.05-38.99-.02-3.32-1.54-5.78-5.14-6.36-4.42-.71-4.98-3.89-4.72-7.46.29-3.96,3.47-2.98,5.73-2.89,12.65.49,25.28,1.41,37.94.22,2.2-.21,4.63.1,4.69,3.14.05,2.79.38,6.38-3.43,6.74-5.12.48-5.71,3.49-5.67,7.56.09,10.33.04,20.66.08,31,0,1.13-.15,2.36.82,3.27,13.38-.42,30.53-11.82,35.31-26.23,1.89-5.68-4-13.94-10.93-15.51-2.23-.51-4.69-.46-5.34-3.54-1.04-4.87.4-6.65,5.4-6.9,13.04-.65,25.91,1.54,38.88,2.13,1.13.05,2.39,0,3.03,1.29-3.5,5.56-3.39,5.55-2.5,14.2.67,6.46,1.29,12.98-3.42,19.33,20.89-7.48,41.08-13.32,60.99-20.04,20.3-6.85,38.5-17.13,56.26-28.67,7.95-5.16,16.31-9.69,24.12-15.71.21-.29.27-.33.27-.33,8.1-4.54,15.38-10.37,23.6-14.77-7.03.74-13.5,3.4-20.09,5.43-23.05,7.12-45.82,15.11-68.73,22.64-17.39,5.71-33.03,14.94-49.7,22.03-4.18,1.78-8.4,3.2-12.88,3.79-1.87.24-4.31,1.15-5.23-1.4-.8-2.23-.68-4.74,1.24-6.51,1.45-1.34,3.11-2.54,4.86-3.45,9.29-4.88,18.63-9.65,27.95-14.48,1.45-.75,3.16-1.16,4.08-2.69-.02-.36.09-.81-.08-.98-17.11-17.04-33.52-35.43-57.42-42.9-40.44-12.65-77.76-6.01-111.68,19.97-26.77,20.51-39.25,48.19-43.03,80.82-1.07,9.22-.57,18.27.62,27.35.41,3.15,1.91,6.42-3.02,7.32-5.73,1.05-8.92-.61-9.79-5.55-1.59-9.04-2.53-18.19-1.77-27.34,2.37-28.69,12.49-54.38,30.97-76.54,19.08-22.88,43.73-36.35,72.71-42.5,41.69-8.85,78.46,1.07,110.64,28.63,8.47,7.26,16.87,14.71,22.44,24.62,1.5,2.68,3.24,1.52,5.08,1.07,7.8-1.9,14.87-5.81,22.49-8.21,13.48-4.26,27.07-8.18,40.48-12.63,18.63-6.19,37.74-10.7,56.46-16.56,5.54-1.73,11.29-2.78,17.34-4.13.4,4.03.4,8.06.4,12.54M71.46,227.73c11.2-.28,21.2-3.87,29.79-11.06,4.45-3.72,5.89-8.96,3.97-13.91-2.71-6.98-5.63-13.87-8.44-20.81-.91-2.24-2.03-4.31-4.67-4.73-14.4-2.27-24.58-2.68-32.73,11.73-6.06,10.71-13.98,19.34-24.89,25.14-.15.08-.09.58-.15,1.12,2.53.56,4.98,1.68,7.71.57,4.08-1.66,8.42-1.77,12.73-2.2,9.92-.97,19.77-2.06,28.87-6.85,4.82-2.54,10.07-4.33,15.5-5.38,3.1-.6,4.06.78,3.34,3.6-1.04,4.09-3.66,6.91-7.19,9.16-12.65,8.05-26.54,8.95-40.88,7.24-2.54-.3-5.03-.68-8.13-.21,6.16,4.35,14.72,6.59,25.18,6.6M113.17,184.19c.41,1.6.67,3.25,1.26,4.79.69,1.81,1.33,4.26,3.71,4.06,2.71-.23,2.94-2.98,3.14-5.01.49-4.79-1.74-9-3.41-13.3-1.26-3.24-3.57-4.49-7.42-3.89.04,4.43,1.69,8.43,2.72,13.35M184.02,150.52q-4.08.2-3.13,5.49,3.65-3.69,3.13-5.49Z"/>
  <path d="M383.03,57.77c-12.53,6.29-24.58,13.34-36.4,20.8-20.43,12.89-42.78,21.26-65.64,28.66-10.3,3.33-20.63,6.4-31.07,9.19-.94.25-1.87.81-3.15-.12.58-2.8,2.94-3.99,5.17-5.22,9.38-5.18,19.78-7.77,29.7-11.57,27.85-10.66,54.57-23.77,81.22-37.07,6.91-3.45,14.38-5.79,21.55-8.62,1.14,2.15-.45,2.54-1.13,3.65-.17.23-.22.27-.25.29Z"/>
  <path d="M334.09,240.91c-9.7,6.05-17.22,5.44-23.57-1.66-5.85-6.55-6.41-16.39-1.3-22.9,6.32-8.05,18.2-9.1,25.74-2.26,8.23,7.45,7.98,18.76-.87,26.83M329.06,231.54c2.82-4.54.12-7.86-2.64-11-1.49-1.69-3.54-1.67-5.41-.37-3.39,2.37-3.47,5.86-2.77,9.37.91,4.5,4.9,5.41,10.81,2Z"/>
  <path d="M73.63,35.49c-7.15,4.44-11.81,4.61-17.31.24-5.54-4.4-9.88-9.63-8.29-17.47,1.19-5.83,8.35-12.58,14.14-13.55,5.73-.96,13.13,2.96,16.26,8.6,4.09,7.38,3.75,13.2-1.2,18.91-.97,1.12-2.19,2.03-3.6,3.26M67.86,19.39c-1.21-2.23-2.74-4.02-5.43-2.25-2.15,1.42-2.75,3.65-1.84,6.11.75,2.01,2.42,2.71,4.39,2.29,2.99-.63,4.04-2.56,2.89-6.15Z"/>
  <path d="M196.58,34.04c6.16,4.98,8.64,10.75,6.92,15.6-2.11,5.97-10.49,12.03-16.53,11.96-4.84-.06-12.68-6.09-14.61-11.54-1.88-5.31-.85-10.15,3.18-14.19,5.33-5.34,11.05-6.61,17.21-3.87,1.21.54,2.36,1.21,3.84,2.03Z"/>
  <path d="M104.53,91.89c.57-6.35.77-12.47,2.18-18.29,1.26-5.19,5.73-7.47,10.94-8.05,5.36-.6,8.9,1.93,11.3,6.49,7.76,14.73-.31,23.93-14.48,26.52-4.5.82-7.82-2.16-9.94-6.67Z"/>
  <path d="M230.48,64.61c-7.81.6-13.18-2.63-16.25-9.42-2.61-5.77-1.62-11.34,2.77-15.54,4.54-4.34,11.33-5.58,16.54-3.02,6.63,3.26,10.53,9.7,9.68,15.97-.8,5.93-5.36,10.34-12.74,12.01Z"/>
  <path d="M189.44,222.39c3.7-.27,7.53-1.52,7.88,3.77.35,5.24-2.03,7.69-7.09,7.92-12.81.59-25.62.43-38.42-.16-3.14-.14-6.3-.62-9.36-1.32-2.87-.66-5.51-2.08-5.2-5.66.29-3.39,2.68-4.92,5.82-5.04,4.32-.17,8.68-.4,12.97,0,10.98,1.01,21.95.86,33.38.49Z"/>
  <path d="M146.93,44.52c4.34-.64,7.9.1,11.08,2.73,4.73,3.91,6.85,8.81,5.33,12.8-2.8,7.31-6.66,10.27-13.07,10.01-6.03-.25-11.66-4.13-13.08-9.04-1.6-5.5.59-11.09,5.84-14.68,1.08-.74,2.35-1.19,3.91-1.83Z"/>
  <path d="M294.37.17c3.46-.62,6.04.47,7.98,2.72,1.83,2.11,3.1,4.89.86,7.17-2,2.04-4.82,1.1-6.82-.54-1.76-1.44-3.07-3.42-5.47-6.19.06,4.95-.08,8.42-2.61,11.09-1.93,2.04-3.85,4.68-7.14,2.84-3.36-1.89-5.06-4.92-3.86-8.83,1.38-4.48,4.74-6.82,9.33-6.96,2.54-.08,4.94-.52,7.73-1.31Z"/>
  <path d="M172.35,297.42c6.08,3.98,6.84,5.93,3.8,11.83-1.55,3.01,1.54,4.52,1.34,7.22-3.66,3.01-5.27-1.16-7.62-2.55-.53.33-1.1.49-1.29.85-.96,1.81-2.28,2.94-4.41,2.34-2.27-.65-2.28-2.62-2.27-4.48.04-3.83.23-7.66.19-11.48-.03-2.73,1.14-4.03,3.86-3.95,2,.06,3.99.09,6.4.23Z"/>
  <path d="M309.17,28.55c-1.22,4.78-3.87,7.72-8.49,8.37-4.19.59-6.79-2.01-9.07-5-1.86-2.44-1.58-4.8.15-7.3,2.88-4.17,6.96-4.93,11.42-3.95,3.78.83,5.83,3.53,5.99,7.88Z"/>
  <path d="M334.55,180.35c2.45-4.28,6.5-3.7,9.98-3.67,3.97.03,7.93.58,11.94.28,2.59-.19,4.7.83,5,3.71.29,2.78-1.67,3.82-3.99,4.13-6.24.84-12.48,1.78-18.75,2.27-4.6.36-5.02-2.79-4.17-6.71Z"/>
  <path d="M226.62,317.15c-3.89-3.81-3.78-6.07-.03-6.05.98,0,1.95.37,2.92.55.75.14,1.56.62,2.24-.32-.79-1.62-2.48-1.3-3.8-1.77-3.31-1.19-5.55-3.12-4.47-7.06,1.12-4.1,4.56-6.35,8.21-5.34,1.95.54,3.83,1.45,4.34,3.66.59,2.54-2.13,2.34-3.3,3.46,5.49,3.72,6.95,6.78,5.05,10.39-1.93,3.66-5.56,4.56-11.16,2.47Z"/>
  <path d="M148.7,314.68c-2.77-2.04-4.6-.65-6.4,1.02-1.18,1.1-2.57,1.71-4.05.71-1.63-1.1-.96-2.66-.44-4.05,1.52-4.03,3.03-8.07,4.71-12.04.69-1.64,1.51-3.59,3.73-3.53,2.42.07,3.17,2.12,3.86,4.01,1.3,3.58,2.58,7.17,3.77,10.79.53,1.61,2.23,3.48.22,4.95-2.13,1.56-3.65-.32-5.4-1.86Z"/>
  <path d="M257.24,306.86c-.13,2.59-.11,4.76-.37,6.9-.24,1.98-.57,4.31-3.31,4.1-2.33-.17-2.65-2.17-2.68-4.11-.03-1.33-.1-2.66-.05-3.99.13-3.41-.27-6.24-4.55-6.94-2.24-.37-3.07-2.08-1.31-4.03,2.62-2.91,15.43-1.6,17.46,1.74.31.51.3,1.23.4,1.71-1.4,2.3-5.62.37-5.59,4.62Z"/>
  <path d="M190.07,308.83c.11-2.74-.12-4.69-3.23-4.83-1.42-.06-2.3-1.3-2.41-2.77-.14-1.81,1.12-2.71,2.58-3.21,3.53-1.22,7.26-1.18,10.79-.53,3.21.59,3.46,3.81,1.33,5.16-3.94,2.5-3.2,6.13-3.7,9.56-.29,2.01.54,4.88-2.68,4.88-3.2,0-2.51-2.84-2.66-4.88-.07-.99-.02-1.98-.02-3.39Z"/>
  <path d="M216.18,236.51c-3.54,3.24-7.09,1.81-10.38.49-2.11-.85-2.21-3.12-1.51-5.18.87-2.55.8-5.63,4.45-6.43,7.6-1.68,10.18,1.89,7.43,11.13Z"/>
  <path d="M286.97,167.21c-1.5,4.07-3.99,6-7.85,4.29-4.19-1.85-4.21-5.57-3.32-9.4.94-4.02,4.18-4.03,7.15-3.54,4.84.8,4.31,4.69,4.02,8.64Z"/>
  <path d="M101.57,125.95c-1.42-3.78.13-6.26,2.89-7.84,2.05-1.17,4.49-1.04,6.57.39,2.8,1.93,2.47,4.83,2.08,7.62-.27,1.93-1.47,3.36-3.44,3.77-3.47.73-6.12-.55-8.11-3.94Z"/>
  <path d="M277.16,144.21c1.39-3.13,2.65-6.07,6.47-5.47,2.79.44,4.93,1.98,5.52,4.97.67,3.43-1.73,6.84-5.02,7.27-4.73.61-6.68-1.15-6.96-6.77Z"/>
  <path d="M347.84,150.02c-1.5,4.77-7.67,7.58-11.49,5.61-3.07-1.58-2.19-4.57-2.17-7.07.02-2.51,2.22-2.75,4.03-2.54,3.46.41,7.99-1.78,9.64,4Z"/>
  <path d="M209.78,316.32c-1.52-5.37-.72-10.5-.87-15.6-.04-1.56.35-3.07,2.29-3.24,1.56-.13,2.47.96,2.89,2.26,1.59,5,1.38,10.13.5,15.18-.42,2.39-2.27,3.1-4.81,1.39Z"/>
</svg>