<svg id="Layer_1" data-name="Layer 1" xmlns="http://www.w3.org/2000/svg" viewBox="0 0 300 300"><defs><style>.cls-1,.cls-10,.cls-11,.cls-12,.cls-13,.cls-14,.cls-15,.cls-16,.cls-17,.cls-18,.cls-19,.cls-2,.cls-20,.cls-21,.cls-22,.cls-3,.cls-4,.cls-5,.cls-6,.cls-7,.cls-8,.cls-9{fill:none;stroke:#000;stroke-miterlimit:10;}.cls-1{stroke-width:0.22px;}.cls-2{stroke-width:0.22px;}.cls-3{stroke-width:0.22px;}.cls-4{stroke-width:0.23px;}.cls-5{stroke-width:0.23px;}.cls-6{stroke-width:0.24px;}.cls-7{stroke-width:0.24px;}.cls-8{stroke-width:0.24px;}.cls-9{stroke-width:0.25px;}.cls-10{stroke-width:0.25px;}.cls-11{stroke-width:0.26px;}.cls-12{stroke-width:0.26px;}.cls-13{stroke-width:0.27px;}.cls-14{stroke-width:0.27px;}.cls-15{stroke-width:0.27px;}.cls-16{stroke-width:0.28px;}.cls-17{stroke-width:0.28px;}.cls-18{stroke-width:0.29px;}.cls-19{stroke-width:0.29px;}.cls-20{stroke-width:0.3px;}.cls-21{stroke-width:0.3px;}.cls-22{stroke-width:0.3px;}</style></defs><path class="cls-1" d="M118.59,133.43c1.31-7.61,2.92-10.38,5.08-13.33,4.38-6,13.42-1.44,13.87,3.64.35,3.93-.24,7.36.5,11.53.51,2.88,6.05,2.51,7.3,6,1.42,4-3.39,10.87-9.69,12.88-7.05,2.26-15.65-1.66-17-6.61C117.53,143.46,117.2,141.46,118.59,133.43Z"/><path class="cls-2" d="M121.29,117.34c.89-1.12,2.26-1.06,3.8-1.69,2.52-1,4.3-3,6.36-2.65s3.38,2.91,5.47,4.3c2.34,1.55,4.78,1.51,5.17,3.38.79,3.75-1.15,8.28-.12,12.54a8,8,0,0,0,.33,1.05,3.52,3.52,0,0,0,1.6,1.81c2.66,1.68,6.47,2.36,7.34,5.25.48,1.59-1,3-1.57,5.2-.48,1.75,0,3.22-.9,4.71-1.06,1.82-3.26,2.54-5.86,4.19-2.91,1.82-4.89,4.1-7.13,4.51-2.91.53-5.13-.4-8.24-1.58-5.22-2-10.68-3.87-11.74-7.53-.68-2.34-.1-4.15-.25-6.65-.19-3-1.85-5.59-1.15-10.27.64-4.34,3.34-6.88,4.47-10C119.89,121.19,120,119,121.29,117.34Z"/><path class="cls-3" d="M118.91,114.58c1.13-1.36,3.1-.59,5.37-1.39,3.56-1.24,5.46-5,8-4.59s3.6,4.79,6.58,6.56c3.26,1.93,7.15.29,7.8,2.46,1.18,3.86-2.13,9.74-.6,14.51a7.76,7.76,0,0,0,.51,1.15,5,5,0,0,0,2,1.94c3.49,2.09,7.73,3,8.56,6.13.56,2.1-2.27,3.62-3,6.67-.63,2.53.78,4.45-.3,6.45-1.27,2.36-4.53,2.58-8.45,4.82-4.39,2.51-6.7,6.15-9.45,6.39-3.27.28-5-1.6-8.71-3.45-5.92-2.95-13-4-14.25-8.16-.83-2.71.69-4.84.46-8-.29-3.83-3.87-6.55-3.19-11.72.61-4.87,5.28-7.34,6.7-11.48C118.13,119.4,117.3,116.5,118.91,114.58Z"/><path class="cls-4" d="M116.53,111.81c1.37-1.58,3.93-.11,6.94-1.07,4.61-1.47,6.63-6.94,9.61-6.54s3.82,6.68,7.68,8.82c4.17,2.31,9.49-.92,10.44,1.53,1.53,4-3.12,11.21-1.09,16.48a6.43,6.43,0,0,0,.7,1.25,7,7,0,0,0,2.44,2.09c4.33,2.48,9,3.65,9.79,7,.64,2.6-3.56,4.23-4.48,8.13-.78,3.31,1.57,5.68.29,8.2-1.48,2.89-5.81,2.61-11,5.45-5.88,3.19-8.52,8.2-11.78,8.26-3.62.06-4.87-2.78-9.17-5.31-6.64-3.89-15.32-4.16-16.77-8.79-1-3.07,1.48-5.54,1.17-9.27-.4-4.71-5.88-7.52-5.24-13.17.61-5.39,7.23-7.79,8.94-13C116.37,117.6,114.66,114,116.53,111.81Z"/><path class="cls-5" d="M114.14,109.05c1.62-1.82,4.78.37,8.52-.76,5.65-1.7,7.79-8.93,11.23-8.49s4.05,8.57,8.8,11.08c5.08,2.69,11.82-2.13,13.06.61,1.86,4.12-4.09,12.67-1.56,18.45a5.91,5.91,0,0,0,.87,1.34,9.34,9.34,0,0,0,2.87,2.23c5.15,2.89,10.2,4.31,11,7.88.71,3.11-4.83,4.85-5.93,9.6-.93,4.09,2.36,6.9.88,9.93-1.69,3.44-7.09,2.66-13.61,6.09-7.37,3.87-10.34,10.27-14.1,10.14-4-.15-4.76-4-9.65-7.18-7.36-4.83-17.64-4.31-19.28-9.42-1.12-3.44,2.27-6.23,1.88-10.57-.51-5.6-7.9-8.49-7.29-14.63.59-5.91,9.18-8.24,11.18-14.52C114.62,115.81,112,111.43,114.14,109.05Z"/><path class="cls-6" d="M111.76,106.28c1.87-2,5.62.85,10.09-.44,6.69-1.93,9-10.92,12.85-10.44s4.28,10.46,9.91,13.34c6,3.08,14.14-3.34,15.69-.31,2.18,4.25-5.06,14.12-2,20.41a5.51,5.51,0,0,0,1.06,1.44,12.35,12.35,0,0,0,3.28,2.37c6,3.29,11.44,5,12.25,8.76.77,3.62-6.13,5.47-7.4,11.07-1.08,4.87,3.16,8.13,1.47,11.67-1.89,4-8.36,2.69-16.19,6.72-8.85,4.55-12.14,12.35-16.42,12s-4.64-5.14-10.12-9c-8.08-5.76-20-4.46-21.79-10.05-1.27-3.81,3-6.92,2.59-11.88-.64-6.47-9.92-9.45-9.33-16.08.57-6.43,11.13-8.69,13.41-16C112.86,114,109.38,108.9,111.76,106.28Z"/><path class="cls-7" d="M109.38,103.52c2.11-2.27,6.46,1.32,11.66-.13,7.73-2.16,10.11-12.91,14.48-12.39s4.49,12.36,11,15.6c6.9,3.47,16.46-4.55,18.32-1.23,2.48,4.39-6,15.58-2.52,22.38a5.57,5.57,0,0,0,1.25,1.53,15.66,15.66,0,0,0,3.7,2.51c6.82,3.69,12.66,5.62,13.47,9.63s-7.42,6.1-8.85,12.55c-1.24,5.64,3.95,9.35,2.06,13.4-2.1,4.51-9.64,2.74-18.77,7.36-10.35,5.23-14,14.44-18.75,13.89s-4.53-6.31-10.58-10.9C117,171,103.57,173.11,101.55,167c-1.41-4.18,3.84-7.62,3.3-13.19-.75-7.36-11.94-10.43-11.38-17.54.55-6.95,13.09-9.15,15.65-17.56C111.11,112.22,106.74,106.37,109.38,103.52Z"/><path class="cls-8" d="M107,100.76c2.35-2.5,7.3,1.79,13.22.18,8.78-2.39,11.29-14.89,16.11-14.34s4.72,14.25,12.12,17.86c7.82,3.85,18.77-5.74,21-2.16,2.77,4.54-7,17-3,24.36a5.7,5.7,0,0,0,1.43,1.62,21.56,21.56,0,0,0,4.12,2.66c7.66,4.08,13.89,6.27,14.7,10.5.89,4.66-8.7,6.72-10.3,14C175,161.88,181.09,166,179,170.6c-2.31,5.05-10.92,2.77-21.35,8-11.84,5.91-15.78,16.52-21.07,15.75-5.06-.73-4.42-7.48-11.06-12.76-9.55-7.61-24.6-4.76-26.82-11.31-1.56-4.55,4.63-8.32,4-14.5-.86-8.24-14-11.39-13.42-19s15-9.6,17.88-19.08C109.35,110.42,104.1,103.84,107,100.76Z"/><path class="cls-9" d="M104.62,98c2.59-2.73,8.13,2.27,14.79.49,9.82-2.61,12.45-16.87,17.73-16.27s5,16.12,13.23,20.11c8.73,4.24,21.07-6.94,23.59-3.08,3.06,4.69-8,18.49-3.48,26.32a5.55,5.55,0,0,0,1.61,1.72,28,28,0,0,0,4.53,2.8c8.5,4.49,15.11,6.93,15.93,11.38.95,5.17-10,7.34-11.75,15.49-1.55,7.19,5.53,11.79,3.24,16.87-2.52,5.59-12.2,2.82-23.94,8.64-13.32,6.59-17.59,18.61-23.39,17.63-5.42-.92-4.31-8.65-11.52-14.63-10.29-8.53-26.93-4.91-29.35-11.94-1.7-4.91,5.43-9,4.73-15.8-1-9.12-16-12.37-15.47-20.45s17-10.05,20.12-20.6C107.6,108.63,101.46,101.31,104.62,98Z"/><path class="cls-10" d="M102.24,95.23c2.84-3,9,2.74,16.36.8,10.86-2.84,13.61-18.86,19.36-18.22s5.16,18,14.33,22.37c9.65,4.62,23.37-8.13,26.22-4,3.35,4.84-8.94,19.94-4,28.29a6.06,6.06,0,0,0,1.79,1.82,37.47,37.47,0,0,0,5,2.93c9.33,4.89,16.33,7.59,17.15,12.26,1,5.68-11.28,8-13.21,17-1.69,8,6.32,13,3.84,18.61-2.75,6.12-13.48,2.85-26.52,9.27-14.81,7.27-19.42,20.71-25.72,19.5-5.77-1.11-4.2-9.81-12-16.49-11-9.45-29.25-5.05-31.86-12.57-1.84-5.28,6.21-9.7,5.44-17.11-1.08-10-18-13.33-17.52-21.9s19-10.5,22.36-22.12C105.86,106.84,98.82,98.78,102.24,95.23Z"/><path class="cls-11" d="M99.85,92.46c3.09-3.18,9.82,3.2,17.94,1.12,11.89-3.09,14.78-20.85,21-20.17,6.37.69,5.39,19.9,15.44,24.63,10.56,5,25.67-9.31,28.85-4.92,3.64,5-9.9,21.4-4.44,30.25a6.08,6.08,0,0,0,2,1.92,49.64,49.64,0,0,0,5.37,3.07c10.18,5.27,17.55,8.25,18.38,13.14,1.05,6.2-12.56,8.58-14.66,18.42-1.85,8.75,7.11,14.25,4.42,20.36-3,6.65-14.75,2.89-29.1,9.9-16.29,7.95-21.23,22.81-28,21.38-6.14-1.3-4.1-11-12.46-18.36C112.75,182.83,92.94,188,90.14,180c-2-5.65,7-10.39,6.15-18.41-1.19-10.89-20-14.31-19.56-23.36s20.92-10.95,24.58-23.64C104.11,105,96.18,96.25,99.85,92.46Z"/><path class="cls-12" d="M97.47,89.7c3.34-3.41,10.65,3.67,19.51,1.43,12.93-3.32,15.94-22.84,22.6-22.12,6.85.74,5.62,21.79,16.55,26.89,11.48,5.38,28-10.49,31.49-5.84,3.91,5.16-10.87,22.85-4.92,32.22a6.2,6.2,0,0,0,2.16,2c1.12.75,2.83,1.68,5.79,3.22,11,5.66,18.77,8.9,19.6,14,1.1,6.72-13.85,9.2-16.11,19.9-2,9.53,7.9,15.47,5,22.09-3.16,7.2-16,2.93-31.68,10.54-17.78,8.64-23.06,24.91-30.36,23.25-6.5-1.47-4-12.15-12.93-20.22-12.5-11.29-33.89-5.34-36.89-13.83-2.13-6,7.79-11.09,6.86-19.72-1.3-11.77-22.06-15.27-21.61-24.81s22.88-11.4,26.82-25.16C102.35,103.25,93.54,93.72,97.47,89.7Z"/><path class="cls-13" d="M95.09,86.93c3.58-3.63,11.49,4.15,21.08,1.75,14-3.55,17.1-24.82,24.23-24.07,7.32.78,5.84,23.68,17.65,29.15,12.4,5.77,30.25-11.67,34.12-6.77,4.2,5.33-11.84,24.31-5.4,34.2a6.52,6.52,0,0,0,2.34,2.1c1.2.76,3,1.72,6.21,3.36,11.84,6.06,20,9.55,20.83,14.88,1.15,7.23-15.14,9.82-17.57,21.37-2.15,10.3,8.7,16.69,5.61,23.83-3.37,7.73-17.31,3-34.26,11.17-19.27,9.32-24.88,27-32.69,25.13-6.87-1.66-3.89-13.32-13.39-22.08-13.25-12.22-36.22-5.5-39.41-14.47-2.28-6.38,8.58-11.78,7.56-21-1.4-12.65-24.08-16.25-23.65-26.27s24.83-11.85,29.06-26.68C100.59,101.45,90.9,91.19,95.09,86.93Z"/><path class="cls-14" d="M92.71,84.17c3.82-3.86,12.33,4.62,22.65,2,15-3.77,18.27-26.8,25.85-26C149,61,147.28,85.78,160,91.62c13.31,6.15,32.54-12.85,36.75-7.69,4.49,5.49-12.8,25.76-5.88,36.16a6.72,6.72,0,0,0,2.53,2.2c1.28.78,3.24,1.77,6.63,3.5,12.67,6.47,21.2,10.21,22.06,15.76,1.18,7.75-16.43,10.44-19,22.84-2.31,11.08,9.49,17.91,6.2,25.56-3.58,8.28-18.59,3-36.85,11.81-20.76,10-26.7,29.12-35,27-7.23-1.84-3.78-14.48-13.86-23.94-14-13.14-38.54-5.65-41.92-15.1C79.16,183,91,177.25,89.86,167.39c-1.51-13.53-26.1-17.21-25.69-27.72S91,127.36,95.46,111.47C98.84,99.66,88.26,88.66,92.71,84.17Z"/><path class="cls-15" d="M90.33,81.41c4.07-4.09,13.17,5.09,24.21,2.36,16.07-4,19.44-28.79,27.48-28,8.29.86,6.29,27.45,19.87,33.67,14.23,6.53,34.83-14,39.38-8.61,4.77,5.66-13.76,27.21-6.35,38.13a6.87,6.87,0,0,0,2.7,2.29c1.37.79,3.46,1.81,7,3.64,13.51,6.87,22.43,10.87,23.29,16.64,1.23,8.26-17.72,11.06-20.48,24.31-2.47,11.85,10.28,19.14,6.79,27.3-3.8,8.81-19.87,3-39.43,12.44-22.25,10.68-28.53,31.22-37.33,28.88-7.6-2-3.68-15.65-14.33-25.81C108.44,194.64,82.31,202.9,78.74,193c-2.57-7.11,10.16-13.16,9-23.63C86.1,154.91,59.6,151.14,60,140.15s28.74-12.76,33.53-29.72C97.08,97.86,85.62,86.13,90.33,81.41Z"/><path class="cls-16" d="M87.94,78.64c4.33-4.31,14,5.58,25.79,2.68,17.11-4.23,20.6-30.78,29.11-29.9,8.76.89,6.51,29.33,21,35.92,15.13,6.91,37.11-15.19,42-9.53,5,5.83-14.74,28.65-6.84,40.09a7.11,7.11,0,0,0,2.89,2.39c1.44.81,3.66,1.85,7.47,3.78,14.34,7.27,23.64,11.53,24.51,17.52,1.27,8.78-19,11.68-21.94,25.78-2.61,12.63,11.08,20.36,7.39,29-4,9.35-21.14,3.09-42,13.08-23.74,11.36-30.36,33.33-39.66,30.75-8-2.2-3.58-16.81-14.8-27.67-15.48-15-43.18-5.94-46.95-16.36-2.72-7.48,10.94-13.85,9.69-24.94C83.85,156,55.44,152.11,55.8,140.63c.34-11.65,30.68-13.21,35.76-31.24C95.33,96.07,83,83.61,87.94,78.64Z"/><path class="cls-17" d="M85.56,75.88c4.57-4.54,14.85,6.05,27.36,3,18.15-4.46,21.76-32.76,30.73-31.85,9.24.94,6.74,31.22,22.09,38.18,16,7.3,39.39-16.36,44.64-10.45s-15.7,30.1-7.32,42.06a7.48,7.48,0,0,0,3.07,2.49c1.53.82,3.87,1.88,7.89,3.92,15.18,7.66,24.86,12.18,25.74,18.38,1.31,9.3-20.29,12.31-23.39,27.26-2.77,13.4,11.87,21.58,8,30.77-4.21,9.89-22.41,3.12-44.59,13.71-25.22,12-32.18,35.44-42,32.63-8.33-2.39-3.47-18-15.26-29.54-16.23-15.89-45.51-6.09-49.47-17-2.87-7.84,11.73-14.55,10.4-26.25C81.6,157,51.28,153.07,51.61,141.11c.32-12.17,32.64-13.66,38-32.76C93.57,94.27,80.35,81.08,85.56,75.88Z"/><path class="cls-18" d="M83.18,73.11c4.81-4.76,15.69,6.53,28.93,3.31,19.19-4.69,22.93-34.75,32.35-33.8,9.72,1,7,33.11,23.2,40.44,17,7.68,41.68-17.53,47.27-11.38s-16.64,31.55-7.79,44a7.69,7.69,0,0,0,3.25,2.58c1.61.83,4.07,1.92,8.3,4.06,16,8.06,26.08,12.83,27,19.26,1.35,9.81-21.58,12.93-24.84,28.72-2.93,14.19,12.66,22.82,8.56,32.52C225,213.28,205.69,206,182.21,217.2c-26.71,12.73-34,37.55-44.3,34.51-8.7-2.57-3.38-19.15-15.74-31.4-17-16.82-47.83-6.24-52-17.62-3-8.22,12.53-15.25,11.12-27.56-2-17.06-34.18-21.09-33.88-33.54.3-12.69,34.6-14.12,40.24-34.28C91.82,92.48,77.71,78.55,83.18,73.11Z"/><path class="cls-19" d="M80.8,70.35c5.06-5,16.53,7,30.5,3.62,20.23-4.92,24.09-36.74,34-35.75,10.19,1,7.19,35,24.3,42.7,17.88,8.06,44-18.7,49.9-12.3s-17.61,33-8.27,46a7.88,7.88,0,0,0,3.44,2.68c1.69.85,4.27,2,8.72,4.2,16.84,8.46,27.3,13.49,28.19,20.14,1.39,10.33-22.87,13.54-26.29,30.19-3.08,15,13.45,24,9.15,34.25-4.63,11-25,3.2-49.75,15-28.2,13.4-35.84,39.64-46.63,36.37-9.07-2.75-3.29-20.29-16.2-33.26-17.75-17.71-50.16-6.39-54.51-18.25-3.15-8.59,13.32-15.94,11.83-28.87C77.1,159.12,43,155,43.24,142.08c.28-13.22,36.54-14.58,42.47-35.81C90.06,90.68,75.07,76,80.8,70.35Z"/><path class="cls-20" d="M78.42,67.58c5.3-5.21,17.37,7.48,32.07,3.93,21.27-5.14,25.25-38.72,35.6-37.69,10.67,1.06,7.41,36.88,25.41,45,18.8,8.44,46.25-19.87,52.54-13.22s-18.59,34.45-8.76,48a8.17,8.17,0,0,0,3.62,2.77c1.78.86,4.48,2,9.14,4.34,17.68,8.87,28.52,14.15,29.42,21,1.43,10.84-24.15,14.16-27.75,31.66-3.23,15.74,14.25,25.26,9.75,36-4.84,11.5-26.25,3.24-52.34,15.62-29.68,14.08-37.66,41.75-49,38.25-9.43-2.93-3.18-21.47-16.67-35.13-18.48-18.63-52.47-6.54-57-18.88C61.18,200.22,78.59,192.54,77,179c-2.17-18.83-38.23-23-38-36.44.26-13.74,38.5-15,44.7-37.34C88.31,88.89,72.43,73.49,78.42,67.58Z"/><path class="cls-21" d="M76,64.82c5.54-5.45,18.21,8,33.64,4.24C132,63.7,136.1,28.35,146.9,29.42c11.15,1.1,7.64,38.77,26.52,47.22,19.71,8.83,48.53-21,55.17-14.14,6.46,6.7-19.56,35.9-9.23,49.93a8.29,8.29,0,0,0,3.8,2.87c1.85.88,4.69,2,9.56,4.49,18.51,9.26,29.72,14.8,30.64,21.89,1.45,11.36-25.44,14.78-29.2,33.13-3.39,16.51,15.05,26.49,10.34,37.72-5.05,12-27.53,3.28-54.92,16.26-31.18,14.76-39.49,43.88-51.28,40.12-9.81-3.09-3.07-22.64-17.13-37-19.22-19.56-54.8-6.68-59.54-19.51-3.44-9.32,14.89-17.33,13.25-31.48-2.29-19.7-40.25-24-40-37.89.23-14.26,40.45-15.48,46.93-38.86C86.55,87.09,69.79,71,76,64.82Z"/><path class="cls-22" d="M79.85,103.14c5-17.84-12.7-34.71-6.2-41.08,5.8-5.68,19,8.42,35.21,4.55C132.22,61,136.45,23.92,147.72,25c11.62,1.15,7.86,40.66,27.62,49.48,20.63,9.21,50.81-22.19,57.8-15.07,6.75,6.88-20.52,37.37-9.71,51.91,2.1,2.83,3.65,2.44,14,7.59,19.35,9.66,30.95,15.45,31.87,22.76,1.51,11.88-26.72,15.41-30.65,34.61-3.54,17.29,15.84,27.71,10.92,39.46-5.25,12.58-28.8,3.32-57.49,16.89-32.67,15.45-41.32,46-53.6,42-10.18-3.29-3-23.82-17.61-38.86-20-20.49-57.12-6.83-62-20.14-3.59-9.69,15.68-18,14-32.78-2.4-20.59-42.27-25-42.06-39.35C30.89,128.73,73.08,127.58,79.85,103.14Z"/></svg>